static_grf.mot
version=1
nRows=17
nColumns 19
inDegrees=yes
endheader
time	1_ground_force_vx	1_ground_force_vy	1_ground_force_vz	1_ground_force_px	1_ground_force_py	1_ground_force_pz	1_ground_torque_x	1_ground_torque_y	1_ground_torque_z	2_ground_force_vx	2_ground_force_vy	2_ground_force_vz	2_ground_force_px	2_ground_force_py	2_ground_force_pz	2_ground_torque_x	2_ground_torque_y	2_ground_torque_z
            0.985000	           -2.976310	          318.580822	          -10.732968	           -0.273728	            0.006326	           -0.430960	           -0.021308	            2.280837	           -0.076841	            1.044247	          322.223682	           13.444080	           -0.288993	            0.005328	           -0.666150	           -0.005937	           -1.832089	           -0.076440
            0.985500	           -2.884870	          319.302099	          -10.775960	           -0.273320	            0.006324	           -0.430511	           -0.021238	            2.350615	           -0.079330	            1.001426	          321.118273	           13.534014	           -0.289063	            0.005325	           -0.665516	           -0.005831	           -1.869619	           -0.078798
            0.986000	           -2.885634	          319.123179	          -11.097724	           -0.273518	            0.006325	           -0.430769	           -0.020885	            2.309676	           -0.080321	            1.139962	          321.671370	           13.488997	           -0.288733	            0.005328	           -0.666041	           -0.006614	           -1.866400	           -0.078266
            0.986500	           -2.976783	          319.302474	          -10.867444	           -0.273569	            0.006324	           -0.430582	           -0.021652	            2.322524	           -0.079047	            1.044309	          322.223180	           13.584864	           -0.289048	            0.005328	           -0.666267	           -0.005965	           -1.840502	           -0.077595
            0.987000	           -3.160401	          320.023698	          -10.909753	           -0.273213	            0.006323	           -0.430314	           -0.022601	            2.288604	           -0.078020	            1.140688	          321.486727	           13.629124	           -0.288936	            0.005327	           -0.665770	           -0.006695	           -1.886958	           -0.079996
            0.987500	           -2.976996	          319.843438	          -10.910981	           -0.273504	            0.006323	           -0.430350	           -0.021375	            2.296500	           -0.078342	            1.143970	          320.566359	           13.531983	           -0.289573	            0.005322	           -0.665111	           -0.006647	           -1.862687	           -0.078629
            0.988000	           -2.930614	          318.761263	          -10.778165	           -0.273397	            0.006325	           -0.430927	           -0.021450	            2.333054	           -0.078887	            0.907000	          321.302578	           13.393926	           -0.289275	            0.005325	           -0.665609	           -0.005111	           -1.810463	           -0.075472
            0.988500	           -3.068682	          319.843420	          -10.910754	           -0.273635	            0.006323	           -0.430351	           -0.021895	            2.282027	           -0.077846	            1.042918	          322.591964	           13.445394	           -0.288986	            0.005329	           -0.666342	           -0.005952	           -1.841032	           -0.076733
            0.989000	           -3.114214	          318.761620	          -10.869422	           -0.273307	            0.006326	           -0.430942	           -0.022322	            2.284809	           -0.077909	            0.857492	          322.039032	           13.396575	           -0.289146	            0.005328	           -0.666342	           -0.004817	           -1.808976	           -0.075252
            0.989500	           -2.976945	          318.942336	          -10.960702	           -0.273262	            0.006325	           -0.430852	           -0.021497	            2.303132	           -0.079149	            0.857512	          322.038865	           13.443503	           -0.289140	            0.005327	           -0.666168	           -0.004925	           -1.849733	           -0.077217
            0.990000	           -3.206145	          319.482862	          -10.911958	           -0.273469	            0.006324	           -0.430492	           -0.022448	            2.236924	           -0.076402	            0.953912	          321.302245	           13.534691	           -0.289095	            0.005326	           -0.665669	           -0.005415	           -1.824006	           -0.076835
            0.990500	           -2.977269	          318.222060	          -11.147217	           -0.273463	            0.006327	           -0.431394	           -0.021798	            2.329866	           -0.081614	            0.766574	          321.301066	           13.675555	           -0.288969	            0.005326	           -0.665549	           -0.004473	           -1.874792	           -0.079797
            0.991000	           -2.976376	          318.941353	          -10.731422	           -0.273563	            0.006325	           -0.430821	           -0.021356	            2.288500	           -0.077001	            0.953227	          321.486553	           13.488420	           -0.289060	            0.005326	           -0.665590	           -0.005484	           -1.849432	           -0.077596
            0.991500	           -2.885421	          318.582216	          -11.054187	           -0.273409	            0.006326	           -0.430944	           -0.020969	            2.315238	           -0.080334	            0.534174	          320.748970	           13.345187	           -0.289026	            0.005325	           -0.665313	           -0.002949	           -1.770623	           -0.073669
            0.992000	           -3.068550	          319.122357	          -10.913845	           -0.273726	            0.006324	           -0.430688	           -0.021944	            2.282129	           -0.078048	            0.905047	          321.854726	           13.489754	           -0.289290	            0.005326	           -0.666015	           -0.005157	           -1.834068	           -0.076870
            0.992500	           -2.976912	          318.762040	          -10.961475	           -0.273461	            0.006326	           -0.430952	           -0.021529	            2.305300	           -0.079274	            0.814068	          321.117262	           13.627950	           -0.288771	            0.005327	           -0.665629	           -0.004687	           -1.849018	           -0.078471
            0.993000	           -2.747745	          318.401750	          -11.009445	           -0.273359	            0.006326	           -0.431092	           -0.019686	            2.281133	           -0.078875	            0.904301	          322.039536	           13.302698	           -0.288738	            0.005329	           -0.666110	           -0.005074	           -1.806999	           -0.074643
